# xmcd
#
# Track frame offsets:
#	150
#	11235
#	23137
#	34477
#	48600
#	58050
#	69237
#	81235
#	99279
#	114007
#	130087
#	142465
#
# Disc length: 2061 seconds
#
# Revision: 1
# Processed by: cddbd v1.5.1PL0 Copyright (c) Steve Scherf et al.
# Submitted via: audiograbber 1.83.01
#
DISCID=a6080b0c
DTITLE=Various Artist - America's Country - Country Legends
DYEAR=1997
DGENRE=Country
TTITLE0=Ricky Skaggs - Uncle Pen
TTITLE1=Ernest Tubb - Waklin' The Floor Over You
TTITLE2=Stonewall Jackson - Waterloo
TTITLE3=Bill Monroe - Blue Moon of Kentucky
TTITLE4=Flatt And Scruggs - Ballad Of Jed Clampett
TTITLE5=Little Jimmy Dickens - May The Bird Of Paradise Fly Up Your Nose
TTITLE6=Roy Clar - Thank God And Greyhound
TTITLE7=Minnie Pearl - Giddyup Go Answer
TTITLE8=Jeannie Seely - Don't Touch Me
TTITLE9=Marty Robbins - My Woman My Woman My Wife
TTITLE10=Connie Smith - Ain't Love A Good Thing
TTITLE11=Roy Acuff - I Saw The Light
EXTD=
EXTT0=
EXTT1=
EXTT2=
EXTT3=
EXTT4=
EXTT5=
EXTT6=
EXTT7=
EXTT8=
EXTT9=
EXTT10=
EXTT11=
PLAYORDER=
